<svg width="171" height="117" viewBox="0 0 171 117" fill="none" xmlns="http://www.w3.org/2000/svg">
<path d="M133.06 46.76V56.4226" stroke="black" stroke-width="8"/>
<path d="M102.06 78.0668H111.628" stroke="black" stroke-width="8"/>
<path d="M111.628 62.9932L114.875 66.2728" stroke="black" stroke-width="4"/>
<path d="M154.369 62.9932L151.121 66.2728" stroke="black" stroke-width="4"/>
<path d="M117.245 92.7539L113.998 96.0335" stroke="black" stroke-width="4"/>
<path d="M148.369 92.7539L151.616 96.0335" stroke="black" stroke-width="4"/>
<path d="M133.06 100.097V109.76" stroke="black" stroke-width="8"/>
<path d="M154.492 78.0668H164.06" stroke="black" stroke-width="8"/>
<ellipse cx="133.06" cy="78.0668" rx="21.4321" ry="21.6442" fill="#FFF4F4"/>
<path d="M131.924 76.27L139.554 79.8636" stroke="black" stroke-width="5"/>
<path d="M133.06 60.2876V76.5207" stroke="black" stroke-width="5"/>
<path d="M94.584 114.5C94.584 115.524 91 116.036 83.832 116.036C75.2987 115.695 71.032 115.14 71.032 114.372V38.512L2.944 38.64C1.23733 38.64 0.384003 35.696 0.384003 29.808C0.384003 23.92 0.512005 26.3946 0.768005 24.176C1.10934 21.9573 2.688 17.264 2.688 20.848L71.032 20.72L71.4165 2.94392C71.4165 1.23725 75.0005 0.383911 82.1685 0.383911C89.4219 0.383911 93.0485 1.06658 93.0485 2.43192L92.664 17.136L92.792 20.72L168.444 20.848C169.895 20.848 170.62 23.8346 170.62 29.808C170.62 35.7813 169.895 38.768 168.444 38.768L94.584 38.64V114.5Z" fill="black"/>
<path d="M36.144 81.86C36.144 90.2226 38.9173 94.02 45.232 94.02C49.328 94.02 54.0213 93.2093 56.752 91.588C58.032 91.588 59.056 93.8066 59.824 98.244C60.6773 102.596 59.824 105.583 59.824 107.204C59.824 108.74 59.6107 109.764 59.184 110.276C54.6613 113.092 48.4747 114.5 40.624 114.5C32.7733 114.5 26.0747 111.599 20.528 105.796C15.0667 99.908 12.336 91.9293 12.336 81.86C12.336 71.7053 15.152 63.0359 20.528 56.8066C25.9893 50.5773 31.296 46.3346 40.256 46.3346C49.3013 46.3346 57.3493 50.116 60.848 54.468C61.616 55.4066 62 56.8146 62 58.692C62 60.484 61.6587 62.7026 60.976 65.348C59.44 70.8093 57.4347 73.9666 54.96 74.82C54.6187 74.9053 54.1067 74.948 53.424 74.948C52.8267 74.948 52.0587 74.436 51.12 73.412C47.792 70.084 45.104 68.42 43.056 68.42C41.0933 68.42 39.3867 69.444 37.936 71.492C36.4853 73.54 36.144 77.252 36.144 81.86Z" fill="black"/>
</svg>
